<svg width="29" height="23" viewBox="0 0 29 23" fill="none" xmlns="http://www.w3.org/2000/svg">
<path d="M14.0435 4.51205L4.02643 12.7701C4.02643 12.7817 4.0235 12.7989 4.01764 12.8222C4.01191 12.8454 4.00885 12.8623 4.00885 12.8742V21.2363C4.00885 21.5383 4.11924 21.7999 4.33994 22.0202C4.56059 22.2407 4.82187 22.3516 5.12386 22.3516H11.8134V15.6618H16.2737V22.3519H22.9631C23.2651 22.3519 23.5267 22.2412 23.747 22.0202C23.9678 21.8001 24.0785 21.5383 24.0785 21.2363V12.8742C24.0785 12.8278 24.0722 12.7928 24.0609 12.7701L14.0435 4.51205Z" fill="#4B2A91"/>
<path d="M27.8932 10.8885L24.0781 7.71781V0.609885C24.0781 0.447392 24.0259 0.31376 23.9211 0.209173C23.8171 0.104709 23.6835 0.0524764 23.5206 0.0524764H20.1758C20.0131 0.0524764 19.8796 0.104709 19.7749 0.209173C19.6705 0.31376 19.6183 0.447453 19.6183 0.609885V4.007L15.3676 0.452944C14.9964 0.150961 14.555 0 14.0439 0C13.5328 0 13.0915 0.150961 12.7199 0.452944L0.193586 10.8885C0.0774672 10.9812 0.0138243 11.1061 0.00198663 11.2629C-0.00979005 11.4196 0.0307876 11.5565 0.123842 11.6725L1.20394 12.9617C1.29699 13.0662 1.41879 13.1301 1.56981 13.1534C1.70924 13.1652 1.84867 13.1244 1.9881 13.0315L14.0435 2.97913L26.099 13.0315C26.1922 13.1125 26.3139 13.153 26.4649 13.153H26.5173C26.668 13.13 26.7896 13.0657 26.8831 12.9615L27.9634 11.6725C28.0562 11.5562 28.0969 11.4195 28.0848 11.2626C28.0729 11.1063 28.0091 10.9814 27.8932 10.8885Z" fill="#4B2A91"/>
</svg>
