<svg width="24" height="24" viewBox="0 0 24 24" fill="none" xmlns="http://www.w3.org/2000/svg">
<path d="M23.3404 20.1594L17.8345 14.653C17.0141 15.9289 15.9284 17.0141 14.6525 17.8345L20.1589 23.3409C21.0379 24.2197 22.4632 24.2197 23.3404 23.3409C24.2195 22.4634 24.2195 21.0382 23.3404 20.1594Z" fill="#573E96"/>
<path d="M17.9998 8.99994C17.9998 4.02986 13.9701 0 8.99994 0C4.02986 0 0 4.02986 0 8.99994C0 13.97 4.02986 17.9997 8.99994 17.9997C13.9701 17.9997 17.9998 13.97 17.9998 8.99994ZM8.99994 15.7496C5.27779 15.7496 2.25005 12.7221 2.25005 8.99999C2.25005 5.27784 5.27779 2.2501 8.99994 2.2501C12.722 2.2501 15.75 5.27784 15.75 8.99999C15.75 12.7221 12.722 15.7496 8.99994 15.7496Z" fill="#573E96"/>
<path d="M3.75006 9.00008H5.24986C5.24986 6.9324 6.93228 5.25013 8.99991 5.25013V3.75018C6.10551 3.75018 3.75006 6.10564 3.75006 9.00008Z" fill="#573E96"/>
</svg>
