<svg width="30" height="22" viewBox="0 0 30 22" fill="none" xmlns="http://www.w3.org/2000/svg">
<path d="M1.30525 12.2732C2.1752 11.1847 3.28693 10.4791 4.64138 10.1561C4.21396 9.51036 4.00085 8.79157 4.00085 7.99994C4.00085 6.89571 4.39155 5.95308 5.17251 5.17174C5.95364 4.39067 6.89632 3.99997 8.00055 3.99997C8.99019 3.99997 9.85466 4.32292 10.5941 4.96881C11.2084 3.46873 12.1905 2.26566 13.5393 1.35954C14.8882 0.453143 16.3752 0 18.0004 0C20.2086 0 22.0941 0.781452 23.6566 2.34397C25.2193 3.90611 26.0003 5.79175 26.0003 8.00011C26.0003 8.1355 25.9899 8.3595 25.9691 8.67189C27.1982 9.24483 28.1773 10.1042 28.9066 11.2499C29.6357 12.3959 30.0003 13.6457 30.0003 15.0001C30.0003 16.9273 29.3152 18.5754 27.9456 19.9452C26.5759 21.3154 24.9274 22.0001 23.0003 22.0001H5.99999C4.34399 22.0001 2.93 21.4139 1.75796 20.2422C0.586081 19.0706 6.10352e-05 17.6566 6.10352e-05 16C0.000225217 14.6042 0.435253 13.3621 1.30525 12.2732ZM10.149 11.8516C10.2483 11.9503 10.3652 11.9998 10.5004 11.9998H14.0004V17.5C14.0004 17.6352 14.0498 17.7524 14.1487 17.8513C14.248 17.9505 14.3649 17.9997 14.5001 17.9997H17.5006C17.636 17.9997 17.7531 17.9506 17.8521 17.8513C17.9508 17.7524 18.0005 17.6352 18.0005 17.5V11.9998H21.5005C21.6462 11.9998 21.7661 11.953 21.8597 11.8595C21.9535 11.7657 22.0003 11.6458 22.0003 11.5001C22.0003 11.375 21.9483 11.2499 21.8442 11.125L16.3598 5.64075C16.266 5.54695 16.1462 5.5001 16.0004 5.5001C15.8545 5.5001 15.7346 5.54695 15.641 5.64075L10.1409 11.1406C10.0471 11.2343 10.0007 11.3541 10.0007 11.5002C10.0008 11.6353 10.0502 11.7529 10.149 11.8516Z" fill="#573E96" fill-opacity="0.46"/>
</svg>
